<svg width="24" height="24" viewBox="0 0 24 24" fill="none" xmlns="http://www.w3.org/2000/svg">
<path d="M11.1719 2.1731C12.6591 2.17314 14.0726 2.49561 15.3447 3.07544C15.6462 3.21287 15.779 3.56887 15.6416 3.87036C15.5042 4.17171 15.1491 4.30527 14.8477 4.16821C13.7286 3.65809 12.484 3.37333 11.1719 3.37329C6.27206 3.37329 2.2998 7.34555 2.2998 12.2454C2.29996 17.145 6.27216 21.1174 11.1719 21.1174C16.0715 21.1173 20.0438 17.1449 20.0439 12.2454C20.0439 11.8496 20.0179 11.4599 19.9678 11.0784C19.9246 10.7498 20.1558 10.4477 20.4844 10.4045C20.8129 10.3615 21.1141 10.5936 21.1572 10.9221C21.2141 11.3553 21.2432 11.7972 21.2432 12.2454C21.243 17.8077 16.7342 22.3165 11.1719 22.3167C5.60942 22.3167 1.09977 17.8078 1.09961 12.2454C1.09961 6.68281 5.60932 2.1731 11.1719 2.1731ZM14.3965 12.8264C14.724 12.8765 14.9495 13.1834 14.8994 13.511C14.7419 14.5406 14.321 15.3712 13.6289 15.9387C12.9407 16.5029 12.0506 16.7522 11.0557 16.7522H11.0352L11.0146 16.7502C10.0882 16.6858 9.2226 16.4322 8.53711 15.8948C7.8406 15.3486 7.38481 14.5526 7.21387 13.5178C7.15988 13.191 7.38129 12.8826 7.70801 12.8284C8.03495 12.7744 8.34443 12.9956 8.39844 13.3225C8.52731 14.1022 8.8482 14.6139 9.27734 14.9504C9.71351 15.2924 10.3166 15.4962 11.0771 15.552C11.8661 15.5485 12.4541 15.3504 12.8682 15.011C13.2821 14.6716 13.5895 14.1358 13.7129 13.3293C13.763 13.0019 14.069 12.7765 14.3965 12.8264ZM8.62695 8.78931C9.16644 8.78931 9.60449 9.22638 9.60449 9.76587C9.60437 10.3053 9.16637 10.7424 8.62695 10.7424C8.08766 10.7423 7.65051 10.3052 7.65039 9.76587C7.65039 9.22647 8.08759 8.78945 8.62695 8.78931ZM13.7168 8.78931C14.2563 8.78931 14.6943 9.22638 14.6943 9.76587C14.6942 10.3053 14.2562 10.7424 13.7168 10.7424C13.1775 10.7423 12.7404 10.3052 12.7402 9.76587C12.7402 9.22647 13.1774 8.78945 13.7168 8.78931ZM19.1953 2.50024C19.5266 2.50024 19.7958 2.76855 19.7959 3.09985V5.30005H21.9961C22.3272 5.30026 22.5955 5.56857 22.5957 5.89966C22.5957 6.2309 22.3273 6.50003 21.9961 6.50024H19.7959V8.89966C19.7959 9.23103 19.5267 9.50024 19.1953 9.50024C18.8641 9.50003 18.5957 9.2309 18.5957 8.89966V6.50024H16.1953C15.8641 6.50003 15.5957 6.2309 15.5957 5.89966C15.5959 5.56857 15.8642 5.30026 16.1953 5.30005H18.5957V3.09985C18.5958 2.76868 18.8642 2.50046 19.1953 2.50024Z" fill="#181818"/>
</svg>
