<svg width="24" height="24" viewBox="0 0 24 24" fill="none" xmlns="http://www.w3.org/2000/svg">
<path d="M6.37476 10.15C6.706 10.15 6.97513 10.4184 6.97534 10.7496C6.97534 11.081 6.70613 11.3502 6.37476 11.3502H4.12476C3.83512 11.3504 3.60055 11.5849 3.60034 11.8746V20.9996C3.60034 21.2894 3.83499 21.5248 4.12476 21.525H19.8748C20.1647 21.525 20.4001 21.2895 20.4001 20.9996V11.8746C20.3999 11.5848 20.1646 11.3502 19.8748 11.3502H17.6248C17.2936 11.35 17.0251 11.0808 17.0251 10.7496C17.0254 10.4185 17.2937 10.1502 17.6248 10.15H19.8748C20.8273 10.15 21.6001 10.9221 21.6003 11.8746V20.9996C21.6003 21.9523 20.8274 22.7252 19.8748 22.7252H4.12476C3.17224 22.725 2.40015 21.9522 2.40015 20.9996V11.8746C2.40036 10.9222 3.17237 10.1502 4.12476 10.15H6.37476ZM11.5759 1.45076C11.8102 1.21645 12.1902 1.21645 12.4246 1.45076L16.9246 5.95076C17.1589 6.18507 17.1589 6.56508 16.9246 6.79939C16.6902 7.03361 16.3102 7.03368 16.0759 6.79939L12.6003 3.32283V13.1246C12.6003 13.456 12.3311 13.7252 11.9998 13.7252C11.6686 13.725 11.4001 13.4558 11.4001 13.1246V3.32381L7.92456 6.79939C7.69024 7.03361 7.31021 7.03368 7.07593 6.79939C6.84165 6.56511 6.84171 6.18508 7.07593 5.95076L11.5759 1.45076Z" fill="#101010"/>
</svg>
