<svg width="107" height="42" viewBox="0 0 107 42" fill="none" xmlns="http://www.w3.org/2000/svg">
<path d="M14.5825 33.788C15.9381 35.4712 18.6241 35.0414 19.379 33.0206L27.6371 10.9141C28.4687 8.68803 26.2822 6.52126 24.043 7.35251L1.81478 15.6044C-0.218153 16.359 -0.644312 19.0285 1.05383 20.3709L5.35903 23.7741C6.02828 24.3032 6.97442 24.3109 7.65237 23.7929L18.0723 15.8313C18.3706 15.6034 18.7929 15.6306 19.059 15.895C19.3251 16.1593 19.3525 16.5787 19.1231 16.875L11.1101 27.2221C10.5875 27.8969 10.5965 28.839 11.1319 29.5038L14.5825 33.788Z" fill="#A64EFF"/>
<path d="M44.4928 28L41.5769 22.7076H40.7581V28H37.343V13.9801H43.0748C44.1799 13.9801 45.1185 14.1732 45.8907 14.5593C46.6763 14.9454 47.2621 15.478 47.6482 16.157C48.0343 16.8227 48.2274 17.5683 48.2274 18.3938C48.2274 19.3258 47.9611 20.1579 47.4285 20.8902C46.9093 21.6225 46.1371 22.1418 45.1119 22.448L48.3472 28H44.4928ZM40.7581 20.2911H42.8751C43.5008 20.2911 43.9668 20.138 44.2731 19.8317C44.5926 19.5255 44.7524 19.0928 44.7524 18.5336C44.7524 18.001 44.5926 17.5816 44.2731 17.2754C43.9668 16.9692 43.5008 16.8161 42.8751 16.8161H40.7581V20.2911ZM55.4439 28.1598C54.3521 28.1598 53.3669 27.9268 52.4881 27.4608C51.6227 26.9948 50.937 26.3291 50.4311 25.4636C49.9385 24.5982 49.6922 23.5863 49.6922 22.428C49.6922 21.283 49.9451 20.2778 50.4511 19.4123C50.957 18.5336 51.6493 17.8612 52.5281 17.3952C53.4068 16.9292 54.3921 16.6962 55.4838 16.6962C56.5756 16.6962 57.5608 16.9292 58.4396 17.3952C59.3183 17.8612 60.0107 18.5336 60.5166 19.4123C61.0225 20.2778 61.2755 21.283 61.2755 22.428C61.2755 23.573 61.0159 24.5849 60.4966 25.4636C59.9907 26.3291 59.2917 26.9948 58.3996 27.4608C57.5209 27.9268 56.5357 28.1598 55.4439 28.1598ZM55.4439 25.204C56.0963 25.204 56.6488 24.9644 57.1015 24.4851C57.5675 24.0057 57.8005 23.3201 57.8005 22.428C57.8005 21.536 57.5742 20.8503 57.1215 20.371C56.6821 19.8917 56.1362 19.652 55.4838 19.652C54.8181 19.652 54.2656 19.8917 53.8262 20.371C53.3868 20.837 53.1672 21.5226 53.1672 22.428C53.1672 23.3201 53.3802 24.0057 53.8062 24.4851C54.2456 24.9644 54.7915 25.204 55.4439 25.204ZM66.5024 13.2212V28H63.0873V13.2212H66.5024ZM72.3923 13.2212V28H68.9772V13.2212H72.3923ZM76.5848 15.6977C75.9856 15.6977 75.493 15.5246 75.1069 15.1784C74.7341 14.8189 74.5477 14.3796 74.5477 13.8603C74.5477 13.3278 74.7341 12.8884 75.1069 12.5422C75.493 12.1827 75.9856 12.003 76.5848 12.003C77.1706 12.003 77.6499 12.1827 78.0227 12.5422C78.4088 12.8884 78.6019 13.3278 78.6019 13.8603C78.6019 14.3796 78.4088 14.8189 78.0227 15.1784C77.6499 15.5246 77.1706 15.6977 76.5848 15.6977ZM78.2823 16.856V28H74.8672V16.856H78.2823ZM87.5474 16.7362C88.8522 16.7362 89.8907 17.1622 90.663 18.0144C91.4485 18.8531 91.8413 20.0115 91.8413 21.4894V28H88.4461V21.9487C88.4461 21.2031 88.2531 20.6239 87.867 20.2112C87.4809 19.7985 86.9616 19.5921 86.3092 19.5921C85.6568 19.5921 85.1376 19.7985 84.7515 20.2112C84.3653 20.6239 84.1723 21.2031 84.1723 21.9487V28H80.7572V16.856H84.1723V18.3339C84.5185 17.8413 84.9845 17.4552 85.5703 17.1756C86.1561 16.8826 86.8152 16.7362 87.5474 16.7362ZM98.4483 16.6962C99.2339 16.6962 99.9196 16.856 100.505 17.1756C101.105 17.4951 101.564 17.9145 101.883 18.4337V16.856H105.298V27.98C105.298 29.0052 105.092 29.9306 104.679 30.756C104.28 31.5948 103.661 32.2605 102.822 32.7532C101.997 33.2458 100.965 33.4921 99.7265 33.4921C98.0755 33.4921 96.7375 33.0993 95.7123 32.3138C94.6871 31.5416 94.1012 30.4898 93.9548 29.1583H97.3299C97.4365 29.5844 97.6894 29.9172 98.0888 30.1569C98.4883 30.4099 98.9809 30.5364 99.5667 30.5364C100.272 30.5364 100.832 30.33 101.244 29.9172C101.67 29.5178 101.883 28.8721 101.883 27.98V26.4023C101.551 26.9215 101.091 27.3476 100.505 27.6805C99.9196 28 99.2339 28.1598 98.4483 28.1598C97.5297 28.1598 96.6975 27.9268 95.9519 27.4608C95.2063 26.9815 94.6138 26.3091 94.1745 25.4437C93.7484 24.5649 93.5354 23.5531 93.5354 22.408C93.5354 21.263 93.7484 20.2578 94.1745 19.3924C94.6138 18.5269 95.2063 17.8612 95.9519 17.3952C96.6975 16.9292 97.5297 16.6962 98.4483 16.6962ZM101.883 22.428C101.883 21.5759 101.644 20.9035 101.164 20.4109C100.698 19.9183 100.126 19.672 99.4469 19.672C98.7679 19.672 98.1887 19.9183 97.7094 20.4109C97.2434 20.8902 97.0104 21.5559 97.0104 22.408C97.0104 23.2601 97.2434 23.9392 97.7094 24.4451C98.1887 24.9377 98.7679 25.184 99.4469 25.184C100.126 25.184 100.698 24.9377 101.164 24.4451C101.644 23.9525 101.883 23.2801 101.883 22.428Z" fill="#4A494F"/>
</svg>
